<svg xmlns="http://www.w3.org/2000/svg" width="655.359" height="655.359" fill-rule="evenodd" clip-rule="evenodd" image-rendering="optimizeQuality" shape-rendering="geometricPrecision" text-rendering="geometricPrecision" viewBox="0 0 6.827 6.827"><circle cx="3.413" cy="3.413" r="3.413" fill="#c2185b"/><path fill="#fffffe" d="M4.993 1.307a.217.217 0 0 1 .217.217v3.778a.217.217 0 0 1-.217.218H1.834a.217.217 0 0 1-.218-.218V1.524a.217.217 0 0 1 .218-.217h3.159zm-.406 1.207a.137.137 0 0 0 .097-.04.137.137 0 0 0 .041-.097v-.465a.137.137 0 0 0-.04-.097.137.137 0 0 0-.098-.04H2.24a.137.137 0 0 0-.097.04.137.137 0 0 0-.04.097v.465a.137.137 0 0 0 .138.138h2.347z"/><path fill="#681836" d="M2.458 3.296v-.23a.022.022 0 0 0-.007-.015.022.022 0 0 0-.016-.006h-.231a.022.022 0 0 0-.016.006.022.022 0 0 0-.007.016v.229c0 .006.003.011.007.015.004.005.01.007.016.007h.231a.022.022 0 0 0 .016-.007.022.022 0 0 0 .007-.015zm.453-.23v.23c0 .006.002.011.006.015.004.005.01.007.016.007h.232a.022.022 0 0 0 .015-.007.022.022 0 0 0 .007-.015v-.23a.022.022 0 0 0-.007-.015.022.022 0 0 0-.015-.006h-.232a.022.022 0 0 0-.016.006.022.022 0 0 0-.006.016zm.729 0v.23c0 .006.002.011.006.015.005.005.01.007.016.007h.232a.022.022 0 0 0 .015-.007.022.022 0 0 0 .007-.015v-.23a.022.022 0 0 0-.007-.015.022.022 0 0 0-.015-.006h-.232a.022.022 0 0 0-.016.006.022.022 0 0 0-.006.016zm.73 0v.23c0 .006.002.011.006.015.004.005.01.007.015.007h.232a.022.022 0 0 0 .016-.007.022.022 0 0 0 .006-.015v-.23a.022.022 0 0 0-.006-.015.022.022 0 0 0-.016-.006h-.232a.022.022 0 0 0-.015.006.022.022 0 0 0-.007.016zm.253.81h-.232a.022.022 0 0 0-.015.006.022.022 0 0 0-.007.016v.23c0 .005.003.01.007.015.004.004.01.006.015.006h.232a.022.022 0 0 0 .016-.006.022.022 0 0 0 .006-.016v-.229a.022.022 0 0 0-.006-.016.022.022 0 0 0-.016-.006zm-.707.251v-.229a.022.022 0 0 0-.007-.016.022.022 0 0 0-.015-.006h-.232a.022.022 0 0 0-.016.006.022.022 0 0 0-.006.016v.23c0 .005.002.01.006.015.005.004.01.006.016.006h.232a.022.022 0 0 0 .015-.006.022.022 0 0 0 .007-.016zm-.73 0v-.229a.022.022 0 0 0-.006-.016.022.022 0 0 0-.015-.006h-.232a.022.022 0 0 0-.016.006.022.022 0 0 0-.006.016v.23c0 .005.002.01.006.015.004.004.01.006.016.006h.232a.022.022 0 0 0 .015-.006.022.022 0 0 0 .007-.016zm-.728 0v-.229a.022.022 0 0 0-.007-.016.022.022 0 0 0-.016-.006h-.231a.022.022 0 0 0-.016.006.022.022 0 0 0-.007.016v.23c0 .005.003.01.007.015.004.004.01.006.016.006h.231a.022.022 0 0 0 .016-.006.022.022 0 0 0 .007-.016zm-.023.58h-.231a.022.022 0 0 0-.016.007.022.022 0 0 0-.007.015v.23c0 .005.003.011.007.015s.01.007.016.007h.231a.022.022 0 0 0 .016-.007.022.022 0 0 0 .007-.016V4.73a.022.022 0 0 0-.007-.015.022.022 0 0 0-.016-.007z"/><path fill="#681836" d="M3.165 4.574a.155.155 0 0 1 .155.156v.248a.155.155 0 0 1-.155.155h-.232a.155.155 0 0 1-.156-.155V4.73a.155.155 0 0 1 .156-.156h.232zm-.62.045a.155.155 0 0 1 .046.11v.23a.155.155 0 0 1-.156.155h-.231a.155.155 0 0 1-.156-.156V4.73a.155.155 0 0 1 .156-.155h.231c.043 0 .082.017.11.045zm1.846-.045h.232a.155.155 0 0 1 .156.155v.23a.155.155 0 0 1-.156.155h-.232a.155.155 0 0 1-.155-.156V4.73a.155.155 0 0 1 .155-.155zm-.729 0h.232a.155.155 0 0 1 .155.155v.23a.155.155 0 0 1-.155.155h-.232a.155.155 0 0 1-.155-.156V4.73a.155.155 0 0 1 .155-.155zm1.117-.676v.23a.155.155 0 0 1-.156.155h-.232a.155.155 0 0 1-.155-.156v-.229a.155.155 0 0 1 .155-.155h.232a.155.155 0 0 1 .156.155zm-.388-.447a.155.155 0 0 1-.155-.155v-.23a.155.155 0 0 1 .155-.155h.232a.155.155 0 0 1 .156.156v.229a.155.155 0 0 1-.156.155h-.232zm.196-.83H2.24a.244.244 0 0 1-.244-.244v-.465a.244.244 0 0 1 .244-.244h2.348a.244.244 0 0 1 .245.244v.465a.244.244 0 0 1-.245.244zm.406-1.208H1.834a.11.11 0 0 0-.111.111v3.778a.11.11 0 0 0 .111.111h3.159a.11.11 0 0 0 .11-.11V1.523a.11.11 0 0 0-.11-.11zm-.944 2.714a.155.155 0 0 1-.155.156h-.232a.155.155 0 0 1-.155-.156v-.229a.155.155 0 0 1 .155-.155h.232a.155.155 0 0 1 .155.155v.23zm-.729-.229v.23a.155.155 0 0 1-.155.155h-.232a.155.155 0 0 1-.156-.156v-.229a.155.155 0 0 1 .156-.155h.232a.155.155 0 0 1 .155.155zm.684-.492a.155.155 0 0 1-.11.045h-.232a.155.155 0 0 1-.155-.155v-.23a.155.155 0 0 1 .155-.155h.232a.155.155 0 0 1 .155.156v.229a.155.155 0 0 1-.045.11zm-.684-.11a.155.155 0 0 1-.155.155h-.232a.155.155 0 0 1-.156-.155v-.23a.155.155 0 0 1 .156-.155h.232a.155.155 0 0 1 .155.156v.229zm-.73.602v.23a.155.155 0 0 1-.155.155h-.231a.155.155 0 0 1-.156-.156v-.229a.155.155 0 0 1 .156-.155h.231a.155.155 0 0 1 .156.155zm0-.831v.229a.155.155 0 0 1-.155.155h-.231a.155.155 0 0 1-.156-.155v-.23a.155.155 0 0 1 .156-.155h.231a.155.155 0 0 1 .156.156z"/><path fill="#681836" d="M3.165 4.707h-.232a.022.022 0 0 0-.016.007.022.022 0 0 0-.006.016v.248c0 .006.002.011.006.015s.01.007.016.007h.232a.022.022 0 0 0 .015-.007.022.022 0 0 0 .007-.015V4.73a.022.022 0 0 0-.007-.016.022.022 0 0 0-.015-.007zm.475.022v.23c0 .005.002.011.006.015.005.004.01.007.016.007h.232a.022.022 0 0 0 .015-.007.022.022 0 0 0 .007-.016V4.73a.022.022 0 0 0-.007-.015.022.022 0 0 0-.015-.007h-.232a.022.022 0 0 0-.016.007.022.022 0 0 0-.006.015zm.73 0v.23c0 .005.002.011.006.015s.01.007.015.007h.232a.022.022 0 0 0 .016-.007.022.022 0 0 0 .006-.016V4.73a.022.022 0 0 0-.006-.015.022.022 0 0 0-.016-.007h-.232a.022.022 0 0 0-.015.007.022.022 0 0 0-.007.015z"/></svg>